<?xml version="1.0" standalone="no"?>
<!DOCTYPE svg PUBLIC "-//W3C//DTD SVG 20010904//EN"
 "http://www.w3.org/TR/2001/REC-SVG-20010904/DTD/svg10.dtd">
<svg version="1.0" xmlns="http://www.w3.org/2000/svg"
 width="1024.000000pt" height="407.000000pt" viewBox="0 0 1024.000000 407.000000"
 preserveAspectRatio="xMidYMid meet">

<g transform="translate(0.000000,407.000000) scale(0.100000,-0.100000)"
fill="#000000" stroke="none">
<path d="M93 2748 c2 -1026 4 -1131 20 -1212 109 -545 438 -818 1057 -877 134
-13 415 -7 535 11 277 41 495 136 652 283 159 151 245 321 299 597 15 75 17
191 21 953 l4 867 365 0 364 0 0 -1335 0 -1335 320 0 320 0 0 1335 0 1335
1265 0 1265 0 0 250 0 250 -2270 0 -2269 0 -4 -1042 c-3 -1013 -4 -1046 -24
-1133 -43 -188 -104 -307 -204 -399 -104 -96 -248 -146 -423 -146 -369 0 -578
201 -641 616 -12 83 -15 265 -15 1102 l0 1002 -320 0 -321 0 4 -1122z"/>
<path d="M6840 1655 l0 -945 195 0 195 0 0 355 0 355 198 0 c222 0 391 13 472
36 124 36 225 108 293 211 67 100 89 175 94 313 8 204 -36 338 -150 452 -70
71 -136 110 -223 133 -83 22 -352 34 -741 35 l-333 0 0 -945z m740 616 c69 -5
142 -16 161 -24 49 -20 106 -73 132 -121 30 -58 30 -174 0 -232 -25 -47 -82
-101 -127 -119 -53 -22 -181 -35 -352 -35 l-164 0 0 270 0 270 113 0 c61 -1
168 -5 237 -9z"/>
<path d="M8407 2593 c-4 -3 -7 -429 -7 -945 l0 -938 195 0 195 0 0 396 0 397
108 -7 c59 -3 130 -14 157 -23 82 -27 148 -105 380 -450 l210 -312 228 -1
c180 0 227 3 221 13 -52 86 -271 433 -318 502 -78 115 -174 216 -255 271 -64
43 -64 43 -35 49 322 72 477 259 461 555 -9 152 -57 260 -156 353 -95 89 -191
120 -417 137 -154 11 -957 14 -967 3z m1030 -349 c171 -83 156 -361 -22 -423
-29 -10 -118 -15 -332 -18 l-293 -5 0 243 0 242 296 -6 c296 -6 297 -6 351
-33z"/>
<path d="M4970 1645 l0 -945 295 0 295 0 0 695 0 695 505 0 505 0 0 250 0 250
-800 0 -800 0 0 -945z"/>
<path d="M4750 531 c-26 -49 2 -56 45 -11 l29 30 -32 0 c-21 0 -35 -6 -42 -19z"/>
<path d="M9992 525 c-15 -33 -15 -35 1 -35 7 0 26 14 42 30 l29 30 -31 0 c-22
0 -33 -6 -41 -25z"/>
<path d="M1573 470 c-33 -14 -55 -53 -47 -85 8 -32 34 -50 102 -70 39 -12 52
-20 52 -35 0 -42 -68 -53 -98 -15 -12 15 -30 25 -45 25 -25 0 -25 -2 -15 -31
14 -40 49 -62 102 -63 80 -2 127 49 105 113 -11 31 -32 45 -99 64 -34 10 -45
18 -45 32 0 16 8 21 37 23 30 3 38 -1 43 -18 5 -16 13 -20 33 -18 34 4 38 20
10 53 -26 30 -94 43 -135 25z"/>
<path d="M3622 463 c-73 -36 -91 -165 -31 -229 47 -50 138 -49 179 3 26 33 25
49 -2 56 -17 5 -29 -2 -49 -26 -24 -28 -30 -31 -55 -22 -16 6 -34 22 -42 35
-17 32 -9 105 13 130 24 26 71 26 87 0 13 -21 52 -27 63 -10 10 15 -13 49 -45
65 -37 19 -76 19 -118 -2z"/>
<path d="M4174 464 c-43 -21 -67 -67 -67 -130 0 -88 49 -138 133 -137 56 1 93
22 114 68 61 128 -58 260 -180 199z m113 -56 c33 -31 33 -109 -2 -143 -57 -58
-136 2 -122 93 11 67 77 94 124 50z"/>
<path d="M4704 464 c-43 -21 -67 -67 -67 -130 0 -88 49 -138 133 -137 56 1 93
22 114 68 61 128 -58 260 -180 199z m113 -56 c33 -31 33 -109 -2 -143 -57 -58
-136 2 -122 93 11 67 77 94 124 50z"/>
<path d="M5004 465 c-43 -22 -68 -70 -68 -131 0 -86 48 -136 132 -137 26 0 64
7 85 17 37 18 37 19 37 77 l0 59 -60 0 c-57 0 -60 -1 -60 -25 0 -21 5 -25 30
-25 40 0 42 -36 3 -51 -63 -24 -113 19 -113 96 0 70 82 112 125 65 10 -11 27
-20 37 -20 31 0 33 29 5 57 -32 33 -107 41 -153 18z"/>
<path d="M5414 470 c-11 -4 -33 -22 -47 -40 -22 -26 -27 -41 -27 -88 0 -96 43
-145 126 -145 40 0 51 4 76 31 15 18 28 38 28 46 0 17 -44 30 -49 14 -7 -20
-41 -48 -60 -48 -10 0 -29 8 -42 19 -31 25 -34 118 -5 150 24 27 67 27 91 1
33 -36 77 -20 55 20 -22 41 -95 61 -146 40z"/>
<path d="M8234 470 c-11 -4 -33 -22 -47 -40 -22 -26 -27 -41 -27 -88 0 -98 43
-146 128 -145 86 1 132 52 132 145 0 98 -97 164 -186 128z m106 -60 c31 -31
28 -113 -5 -145 -13 -14 -33 -25 -43 -25 -29 0 -70 37 -77 70 -8 36 10 96 33
110 28 16 71 11 92 -10z"/>
<path d="M83 358 c6 -101 9 -115 31 -137 20 -20 34 -24 82 -24 50 0 61 4 81
27 21 25 23 36 23 137 l0 109 -25 0 c-25 0 -25 0 -25 -93 0 -102 -14 -137 -54
-137 -44 0 -56 28 -56 133 l0 97 -32 0 -31 0 6 -112z"/>
<path d="M360 335 l0 -135 25 0 c24 0 24 2 27 88 l3 87 53 -87 c48 -79 57 -88
83 -88 l29 0 0 135 0 135 -25 0 c-25 0 -25 -1 -25 -92 l0 -93 -56 93 c-49 83
-58 92 -85 92 l-29 0 0 -135z"/>
<path d="M630 335 l0 -135 30 0 30 0 0 135 0 135 -30 0 -30 0 0 -135z"/>
<path d="M720 464 c0 -4 21 -65 46 -136 47 -129 47 -129 77 -126 24 2 33 10
42 38 7 19 29 79 48 133 l36 98 -31 -3 c-30 -3 -33 -7 -63 -97 -35 -105 -31
-106 -75 27 -23 66 -27 72 -52 72 -16 0 -28 -3 -28 -6z"/>
<path d="M1000 335 l0 -135 106 0 c104 0 105 0 102 23 -3 20 -9 22 -80 25
l-78 3 0 34 0 35 70 0 c68 0 70 1 70 25 0 24 -2 25 -70 25 l-70 0 0 30 0 30
75 0 c68 0 75 2 75 20 0 19 -7 20 -100 20 l-100 0 0 -135z"/>
<path d="M1250 335 l0 -135 30 0 c30 0 30 1 30 55 0 51 2 55 24 55 17 0 33
-14 60 -55 30 -46 41 -55 66 -55 17 0 30 3 30 8 0 11 -50 85 -68 99 -13 11
-12 14 10 22 28 10 51 61 41 89 -16 46 -32 52 -130 52 l-93 0 0 -135z m161 79
c22 -26 -1 -49 -55 -52 l-46 -3 0 35 c0 36 0 36 44 36 28 0 48 -6 57 -16z"/>
<path d="M1780 335 l0 -135 30 0 30 0 0 135 0 135 -30 0 -30 0 0 -135z"/>
<path d="M1890 335 l0 -135 70 0 c77 0 112 12 135 46 37 57 26 166 -22 203
-21 17 -40 21 -104 21 l-79 0 0 -135z m126 89 c42 -11 60 -107 28 -152 -12
-17 -25 -22 -60 -22 l-44 0 0 90 0 90 28 0 c15 0 37 -3 48 -6z"/>
<path d="M2191 340 c-28 -72 -51 -132 -51 -135 0 -3 13 -5 28 -5 22 0 30 7 39
30 11 28 14 30 66 30 52 0 56 -2 66 -30 8 -24 16 -30 40 -30 l31 0 -19 48
c-11 26 -35 86 -53 134 -32 85 -34 88 -65 88 -31 0 -32 -1 -82 -130z m105 3
l13 -33 -35 0 c-39 0 -40 3 -18 56 11 25 19 34 22 24 2 -8 11 -30 18 -47z"/>
<path d="M2440 335 l0 -135 73 0 c39 0 83 6 97 13 52 26 75 121 46 191 -22 53
-49 66 -138 66 l-78 0 0 -135z m157 69 c16 -21 17 -107 3 -135 -8 -15 -22 -19
-60 -19 l-50 0 0 91 0 92 47 -6 c29 -3 52 -12 60 -23z"/>
<path d="M2720 335 l0 -135 100 0 100 0 0 25 c0 24 -2 25 -75 25 l-75 0 0 35
0 35 70 0 c68 0 70 1 70 25 0 24 -2 25 -70 25 l-70 0 0 30 0 30 75 0 c68 0 75
2 75 20 0 19 -7 20 -100 20 l-100 0 0 -135z"/>
<path d="M3060 450 c0 -17 7 -20 40 -20 l40 0 0 -115 0 -115 25 0 25 0 0 115
0 115 40 0 c33 0 40 3 40 20 0 19 -7 20 -105 20 -98 0 -105 -1 -105 -20z"/>
<path d="M3310 335 l0 -135 105 0 105 0 0 25 c0 25 -1 25 -80 25 l-80 0 0 35
0 35 70 0 c68 0 70 1 70 25 0 24 -2 25 -70 25 l-70 0 0 30 0 30 75 0 c68 0 75
2 75 20 0 19 -7 20 -100 20 l-100 0 0 -135z"/>
<path d="M3840 335 l0 -135 25 0 c24 0 24 2 27 87 l3 86 53 -86 c47 -78 56
-87 82 -87 l30 0 0 135 0 135 -25 0 c-25 0 -25 -1 -25 -92 l0 -93 -57 93 c-49
81 -59 92 -84 92 l-29 0 0 -135z"/>
<path d="M4410 335 l0 -135 100 0 100 0 0 25 c0 24 -2 25 -70 25 l-70 0 0 110
0 110 -30 0 -30 0 0 -135z"/>
<path d="M5240 335 l0 -135 25 0 25 0 0 135 0 135 -25 0 -25 0 0 -135z"/>
<path d="M5690 448 c-22 -52 -90 -232 -90 -240 0 -4 12 -8 26 -8 19 0 28 7 37
30 11 28 14 30 67 30 53 0 56 -2 67 -30 9 -24 17 -30 41 -30 l30 0 -53 133
c-51 127 -54 132 -84 135 -24 3 -33 -2 -41 -20z m56 -83 c20 -49 18 -55 -20
-55 l-34 0 17 45 c9 25 17 45 19 45 2 0 10 -16 18 -35z"/>
<path d="M5990 335 l0 -135 25 0 c22 0 24 4 27 58 l3 57 58 3 c49 3 57 6 57
22 0 18 -7 20 -61 20 l-60 0 3 33 3 32 68 3 c59 3 67 5 67 22 0 18 -7 20 -95
20 l-95 0 0 -135z"/>
<path d="M6220 335 l0 -135 105 0 105 0 0 25 c0 24 -2 25 -75 25 l-75 0 0 35
0 35 65 0 c63 0 65 1 65 25 0 24 -2 25 -65 25 l-65 0 0 30 0 30 75 0 c68 0 75
2 75 20 0 19 -7 20 -105 20 l-105 0 0 -135z"/>
<path d="M6480 335 l0 -135 70 0 c105 0 130 17 155 108 11 37 -14 120 -42 142
-21 16 -41 20 -104 20 l-79 0 0 -135z m145 70 c19 -18 25 -35 25 -67 0 -64
-21 -88 -76 -88 l-44 0 0 90 0 90 35 0 c25 0 44 -8 60 -25z"/>
<path d="M6750 335 l0 -135 105 0 105 0 0 25 c0 24 -2 25 -75 25 l-75 0 0 35
0 35 70 0 c68 0 70 1 70 25 0 24 -2 25 -70 25 l-70 0 0 30 0 30 75 0 c68 0 75
2 75 20 0 19 -7 20 -105 20 l-105 0 0 -135z"/>
<path d="M7010 335 l0 -135 25 0 c24 0 25 3 25 56 0 54 0 55 27 52 20 -2 37
-17 63 -55 30 -45 40 -52 68 -53 l33 0 -15 29 c-9 16 -26 42 -40 58 l-25 30
29 22 c37 27 41 80 10 111 -17 17 -33 20 -110 20 l-90 0 0 -135z m148 86 c8
-4 12 -19 10 -32 -3 -21 -9 -24 -55 -27 l-53 -3 0 35 c0 36 0 36 43 36 23 0
48 -4 55 -9z"/>
<path d="M7353 453 c-3 -10 -23 -61 -43 -113 -57 -146 -56 -140 -21 -140 25 0
30 5 36 30 6 29 8 30 65 30 56 0 58 -1 69 -30 8 -24 16 -30 40 -30 l31 0 -17
43 c-90 228 -87 222 -121 225 -24 2 -34 -1 -39 -15z m63 -110 l13 -33 -35 0
c-39 0 -40 6 -18 58 11 25 18 32 21 22 3 -8 12 -30 19 -47z"/>
<path d="M7560 335 l0 -135 95 0 c95 0 95 0 95 25 0 24 -2 25 -65 25 l-65 0 0
110 0 110 -30 0 -30 0 0 -135z"/>
<path d="M7890 335 l0 -135 69 0 c87 0 115 11 142 52 16 26 19 46 17 95 -3 53
-8 67 -33 93 -27 29 -32 30 -112 30 l-83 0 0 -135z m150 75 c15 -15 20 -33 20
-71 0 -73 -11 -89 -65 -89 l-45 0 0 90 0 90 35 0 c22 0 43 -8 55 -20z"/>
<path d="M8570 335 l0 -135 30 0 c29 0 30 1 30 49 l0 48 52 5 c40 4 57 11 75
32 29 34 29 75 2 110 -19 24 -26 26 -105 26 l-84 0 0 -135z m131 85 c41 -23
16 -70 -38 -70 -32 0 -33 1 -33 40 0 36 2 40 26 40 14 0 34 -5 45 -10z"/>
<path d="M8824 343 c-27 -70 -50 -130 -52 -135 -2 -4 10 -8 26 -8 24 0 32 6
41 30 9 29 13 30 66 30 53 0 57 -1 66 -30 9 -24 17 -30 41 -30 24 0 29 3 24
18 -4 9 -28 70 -53 135 -46 115 -47 117 -78 117 -32 0 -33 -1 -81 -127z m83
-31 c-16 -2 -31 -2 -33 1 -2 2 4 25 13 51 l18 47 16 -48 16 -48 -30 -3z"/>
<path d="M9070 335 l0 -135 30 0 c30 0 30 1 30 55 0 51 2 55 24 55 17 0 33
-14 60 -55 l36 -55 64 0 c61 0 64 1 76 30 12 28 16 30 67 30 51 0 55 -2 64
-30 9 -24 17 -30 41 -30 24 0 29 3 24 18 -4 9 -28 70 -53 135 -45 114 -47 117
-78 117 -30 0 -31 -2 -80 -130 -28 -71 -53 -130 -56 -130 -4 0 -21 22 -39 49
-17 28 -37 52 -43 54 -7 3 0 10 16 16 47 19 57 80 19 124 -12 14 -32 17 -109
17 l-93 0 0 -135z m160 80 c6 -8 9 -23 5 -35 -5 -17 -15 -20 -56 -20 l-49 0 0
35 c0 35 0 35 44 35 26 0 48 -6 56 -15z m254 -83 c7 -20 4 -22 -29 -22 -25 0
-35 4 -31 13 2 6 10 29 17 50 l12 38 12 -29 c7 -15 16 -38 19 -50z"/>
<path d="M9620 336 l0 -136 30 0 29 0 3 82 3 82 50 -82 c43 -71 54 -82 77 -82
l28 0 0 135 0 135 -25 0 c-24 0 -24 -2 -27 -86 l-3 -85 -51 83 c-44 73 -54 83
-82 86 l-32 3 0 -135z"/>
<path d="M9924 335 l-52 -135 30 0 c23 0 31 6 39 30 10 28 14 30 66 30 52 0
55 -2 66 -30 9 -23 17 -30 39 -30 15 0 28 3 28 8 0 4 -23 64 -51 135 -50 125
-52 127 -83 127 -31 0 -31 -1 -82 -135z m95 43 c25 -68 25 -68 -13 -68 l-35 0
16 45 c8 25 17 45 19 45 3 0 8 -10 13 -22z"/>
</g>
</svg>
